<svg id="visual" viewBox="0 0 900 450" width="900" height="450" xmlns="http://www.w3.org/2000/svg" xmlns:xlink="http://www.w3.org/1999/xlink" version="1.1"><rect x="0" y="0" width="900" height="450" fill="#fff"></rect><path d="M0 316L30 321.7C60 327.3 120 338.7 180 337.8C240 337 300 324 360 319.7C420 315.3 480 319.7 540 329.3C600 339 660 354 720 352.5C780 351 840 333 870 324L900 315L900 451L870 451C840 451 780 451 720 451C660 451 600 451 540 451C480 451 420 451 360 451C300 451 240 451 180 451C120 451 60 451 30 451L0 451Z" fill="#1b263b" stroke-linecap="round" stroke-linejoin="miter"></path></svg>