<svg id="visual" viewBox="0 0 900 600" width="900" height="600" xmlns="http://www.w3.org/2000/svg" xmlns:xlink="http://www.w3.org/1999/xlink" version="1.1"><rect x="0" y="0" width="900" height="600" fill="#1b263b"></rect><path d="M0 448L21.5 439.2C43 430.3 86 412.7 128.8 406.7C171.7 400.7 214.3 406.3 257.2 407C300 407.7 343 403.3 385.8 401.8C428.7 400.3 471.3 401.7 514.2 415.8C557 430 600 457 642.8 459.7C685.7 462.3 728.3 440.7 771.2 433C814 425.3 857 431.7 878.5 434.8L900 438L900 601L878.5 601C857 601 814 601 771.2 601C728.3 601 685.7 601 642.8 601C600 601 557 601 514.2 601C471.3 601 428.7 601 385.8 601C343 601 300 601 257.2 601C214.3 601 171.7 601 128.8 601C86 601 43 601 21.5 601L0 601Z" fill="#fff" stroke-linecap="round" stroke-linejoin="miter"></path></svg>