<svg id="visual" viewBox="0 0 900 600" width="900" height="600" xmlns="http://www.w3.org/2000/svg" xmlns:xlink="http://www.w3.org/1999/xlink" version="1.1"><rect x="0" y="0" width="900" height="600" fill="#1b263b"></rect><path d="M0 441L37.5 447C75 453 150 465 225 468.3C300 471.7 375 466.3 450 452.7C525 439 600 417 675 407.3C750 397.7 825 400.3 862.5 401.7L900 403L900 601L862.5 601C825 601 750 601 675 601C600 601 525 601 450 601C375 601 300 601 225 601C150 601 75 601 37.5 601L0 601Z" fill="#fff" stroke-linecap="round" stroke-linejoin="miter"></path></svg>