<svg id="visual" viewBox="0 0 900 100" width="900" height="100" xmlns="http://www.w3.org/2000/svg" xmlns:xlink="http://www.w3.org/1999/xlink" version="1.1"><rect x="0" y="0" width="900" height="100" fill="#1b263b"></rect><path d="M0 73L37.5 74C75 75 150 77 225 77.5C300 78 375 77 450 74.7C525 72.3 600 68.7 675 67C750 65.3 825 65.7 862.5 65.8L900 66L900 101L862.5 101C825 101 750 101 675 101C600 101 525 101 450 101C375 101 300 101 225 101C150 101 75 101 37.5 101L0 101Z" fill="#fff" stroke-linecap="round" stroke-linejoin="miter"></path></svg>