
<svg id="visual" viewBox="0 0 900 600" width="900" height="600" xmlns="http://www.w3.org/2000/svg" xmlns:xlink="http://www.w3.org/1999/xlink" version="1.1"><rect x="0" y="0" width="900" height="600" fill="#fff"></rect><g transform="translate(463.70191957634177 350.14680727931227)"><path d="M145.1 -225.4C184.2 -200.6 209.4 -153.9 210.8 -108.7C212.2 -63.4 189.7 -19.7 176.1 20.2C162.4 60.1 157.5 96.2 137.5 119.1C117.6 141.9 82.4 151.6 50 153.5C17.5 155.4 -12.4 149.7 -43.2 142.7C-74 135.7 -105.8 127.4 -141.3 109.6C-176.8 91.7 -216.1 64.2 -230.9 27.1C-245.7 -10 -236.1 -56.7 -220.6 -104.9C-205.1 -153.1 -183.6 -202.7 -145.9 -228.2C-108.1 -253.6 -54.1 -254.8 -0.5 -254C53 -253.1 106 -250.2 145.1 -225.4" fill="#1b263b"></path></g></svg>